<svg version="1.1" id="Layer_1" xmlns="http://www.w3.org/2000/svg" xmlns:xlink="http://www.w3.org/1999/xlink" x="0px" y="0px"
	 width="100%" viewBox="0 0 750 750" enable-background="new 0 0 750 750" xml:space="preserve">
<path fill="none" opacity="1.000000" stroke="none" 
	d="
M421.000000,751.000000 
	C280.666656,751.000000 140.833328,751.000000 1.000000,751.000000 
	C1.000000,501.000000 1.000000,251.000000 1.000000,1.000000 
	C251.000000,1.000000 501.000000,1.000000 751.000000,1.000000 
	C751.000000,251.000000 751.000000,501.000000 751.000000,751.000000 
	C641.166687,751.000000 531.333313,751.000000 421.000000,751.000000 
M361.676514,611.000244 
	C347.790863,609.016541 333.835541,607.424255 320.033875,604.968506 
	C290.405487,599.696716 263.254211,588.042847 237.904221,571.982178 
	C213.229065,556.349060 192.611267,536.516907 175.999741,512.500427 
	C165.689575,497.594269 157.595947,481.553162 151.200745,464.611694 
	C142.789078,442.328430 138.116150,419.229095 137.181091,395.514282 
	C136.767792,385.031921 137.919540,374.426514 139.076859,363.956116 
	C141.601273,341.117218 148.605759,319.636932 160.058609,299.675812 
	C174.017197,275.347351 192.833374,255.834793 216.591812,240.702072 
	C239.156448,226.329773 263.658569,217.714493 289.983368,215.281403 
	C308.288788,213.589508 326.705414,214.763763 344.588440,220.766388 
	C366.471161,228.111511 384.485809,240.785294 400.129242,257.515900 
	C412.524445,270.772491 422.760193,285.320862 430.007446,301.956879 
	C438.941711,322.465485 443.763214,343.516083 441.169495,366.212799 
	C438.567261,388.984100 429.006561,408.115906 413.749115,424.659668 
	C403.693115,435.563507 391.686615,443.858795 378.127075,450.026367 
	C356.092987,460.048767 333.247223,461.757568 309.968018,456.368347 
	C289.028564,451.520813 271.324219,440.771698 257.001373,424.556885 
	C248.168472,414.557190 240.964966,403.630646 236.980835,390.821320 
	C234.606934,383.189056 232.612000,375.438934 230.168945,366.754425 
	C229.715042,371.474976 228.918716,375.214111 229.089935,378.908447 
	C229.462265,386.941315 229.891785,395.016296 231.074799,402.958374 
	C234.524536,426.117767 244.673935,446.266388 260.209808,463.586884 
	C272.681458,477.491180 287.443207,488.354553 304.517883,496.346802 
	C321.685242,504.382416 339.733307,508.050598 358.356781,508.807831 
	C368.503662,509.220398 378.746277,507.855621 388.917297,506.967010 
	C405.928619,505.480804 421.969543,500.137939 437.344330,493.119781 
	C462.042572,481.845795 483.571716,466.181671 501.274628,445.335846 
	C514.129944,430.198120 524.911865,413.869080 532.795105,395.619415 
	C545.014587,367.331421 550.901306,337.862793 548.912109,307.052490 
	C548.121704,294.810394 547.036560,282.507324 544.871216,270.450073 
	C539.819336,242.319336 529.025879,216.322006 513.707031,192.205521 
	C501.584778,173.121475 487.055511,156.196793 469.971954,141.273987 
	C455.125549,128.305359 438.948730,117.423965 421.306763,108.999870 
	C408.199341,102.741051 394.414703,97.737503 380.611298,93.135918 
	C357.648407,85.480858 333.712311,82.661278 309.666046,82.232292 
	C295.073151,81.971954 280.292358,83.036194 265.862701,85.246552 
	C249.221436,87.795662 232.718521,91.682091 216.437637,96.041351 
	C195.645676,101.608490 176.179596,110.684975 157.435669,121.221222 
	C138.189713,132.039642 120.159744,144.675507 103.985573,159.683456 
	C89.947670,172.709183 76.794334,186.615341 65.307472,202.074860 
	C51.759109,220.308853 40.610386,239.920898 31.305395,260.525452 
	C22.757965,279.452484 15.991746,299.178131 12.347671,319.630432 
	C9.027123,338.266968 6.679494,357.148804 5.246342,376.024475 
	C4.284791,388.688812 5.379155,401.547119 6.090521,414.288696 
	C6.665728,424.591400 7.335652,434.980347 9.210398,445.100037 
	C13.168180,466.463745 18.371992,487.555359 26.027849,507.966919 
	C34.721909,531.146423 45.498650,553.262756 58.604183,574.300842 
	C68.637497,590.407227 79.515488,605.861755 92.390984,619.775574 
	C104.265434,632.607483 115.849571,645.920471 129.110565,657.200623 
	C144.054825,669.912537 160.180527,681.466125 176.813095,691.895752 
	C192.454498,701.703857 208.916336,710.621521 225.951523,717.674316 
	C243.839600,725.080261 262.545135,731.105530 281.429077,735.352356 
	C302.056763,739.991516 323.214722,743.416565 344.295654,744.581360 
	C366.215179,745.792542 388.335571,743.993835 410.335083,742.866577 
	C421.246277,742.307495 432.196075,740.890320 442.931335,738.833069 
	C467.620636,734.101929 492.010559,728.116028 515.538574,719.015198 
	C535.568115,711.267700 554.883606,702.056946 573.245300,690.927490 
	C592.836304,679.052917 611.419067,665.676392 628.203003,650.111023 
	C650.839233,629.118347 671.295715,606.174683 688.363892,580.258728 
	C705.525269,554.201355 719.275208,526.517883 729.381165,497.076080 
	C735.491333,479.275238 740.661682,461.144867 743.017151,442.371185 
	C745.071777,425.995941 748.060852,409.649963 748.747192,393.212158 
	C749.712402,370.093628 749.729553,346.863464 745.994080,323.868561 
	C743.386047,307.813995 741.296875,291.641022 737.860291,275.762421 
	C731.155823,244.785095 720.391541,215.086807 706.740601,186.520294 
	C696.846497,165.815567 685.764282,145.667282 671.756042,127.411728 
	C660.329712,112.520889 648.959229,97.415916 635.968445,83.944466 
	C622.750854,70.237801 607.873352,58.062622 593.195007,45.851032 
	C574.299377,30.130859 552.539856,18.941004 530.570435,8.215918 
	C529.980774,7.928060 529.127747,8.179614 527.731506,8.179614 
	C533.305359,13.062334 538.591614,17.248497 543.352356,21.965046 
	C550.996033,29.537710 558.448975,37.318535 565.685852,45.281036 
	C571.617981,51.807945 577.610168,58.378216 582.700867,65.550270 
	C591.610474,78.102715 599.930298,91.078506 608.350342,103.972794 
	C622.111023,125.045509 632.286194,147.921539 640.879150,171.443192 
	C650.362244,197.401489 657.959778,223.954590 660.966919,251.555252 
	C662.656616,267.063263 663.848633,282.632294 664.921021,298.197510 
	C665.390442,305.011780 665.322388,311.903778 664.931763,318.728027 
	C664.152466,332.342560 664.078430,346.129700 661.703064,359.488129 
	C658.530396,377.330048 654.089966,395.019531 649.020020,412.432648 
	C642.643372,434.333771 632.562378,454.744751 620.922180,474.348053 
	C609.420471,493.717987 594.854919,510.729523 579.365540,526.912598 
	C573.061523,533.498962 565.535522,538.912292 558.594604,544.893188 
	C544.471191,557.062927 528.875427,567.165222 512.425476,575.703674 
	C489.212524,587.752441 465.071808,597.521667 439.367371,603.348938 
	C419.481689,607.857117 399.528900,610.902588 379.141266,610.996277 
	C373.641846,611.021545 368.142242,611.000183 361.676514,611.000244 
z"/>
<path fill="#3A0756" opacity="1.000000" stroke="none" 
	d="
M362.159607,611.000244 
	C368.142242,611.000183 373.641846,611.021545 379.141266,610.996277 
	C399.528900,610.902588 419.481689,607.857117 439.367371,603.348938 
	C465.071808,597.521667 489.212524,587.752441 512.425476,575.703674 
	C528.875427,567.165222 544.471191,557.062927 558.594604,544.893188 
	C565.535522,538.912292 573.061523,533.498962 579.365540,526.912598 
	C594.854919,510.729523 609.420471,493.717987 620.922180,474.348053 
	C632.562378,454.744751 642.643372,434.333771 649.020020,412.432648 
	C654.089966,395.019531 658.530396,377.330048 661.703064,359.488129 
	C664.078430,346.129700 664.152466,332.342560 664.931763,318.728027 
	C665.322388,311.903778 665.390442,305.011780 664.921021,298.197510 
	C663.848633,282.632294 662.656616,267.063263 660.966919,251.555252 
	C657.959778,223.954590 650.362244,197.401489 640.879150,171.443192 
	C632.286194,147.921539 622.111023,125.045509 608.350342,103.972794 
	C599.930298,91.078506 591.610474,78.102715 582.700867,65.550270 
	C577.610168,58.378216 571.617981,51.807945 565.685852,45.281036 
	C558.448975,37.318535 550.996033,29.537710 543.352356,21.965046 
	C538.591614,17.248497 533.305359,13.062334 527.731506,8.179614 
	C529.127747,8.179614 529.980774,7.928060 530.570435,8.215918 
	C552.539856,18.941004 574.299377,30.130859 593.195007,45.851032 
	C607.873352,58.062622 622.750854,70.237801 635.968445,83.944466 
	C648.959229,97.415916 660.329712,112.520889 671.756042,127.411728 
	C685.764282,145.667282 696.846497,165.815567 706.740601,186.520294 
	C720.391541,215.086807 731.155823,244.785095 737.860291,275.762421 
	C741.296875,291.641022 743.386047,307.813995 745.994080,323.868561 
	C749.729553,346.863464 749.712402,370.093628 748.747192,393.212158 
	C748.060852,409.649963 745.071777,425.995941 743.017151,442.371185 
	C740.661682,461.144867 735.491333,479.275238 729.381165,497.076080 
	C719.275208,526.517883 705.525269,554.201355 688.363892,580.258728 
	C671.295715,606.174683 650.839233,629.118347 628.203003,650.111023 
	C611.419067,665.676392 592.836304,679.052917 573.245300,690.927490 
	C554.883606,702.056946 535.568115,711.267700 515.538574,719.015198 
	C492.010559,728.116028 467.620636,734.101929 442.931335,738.833069 
	C432.196075,740.890320 421.246277,742.307495 410.335083,742.866577 
	C388.335571,743.993835 366.215179,745.792542 344.295654,744.581360 
	C323.214722,743.416565 302.056763,739.991516 281.429077,735.352356 
	C262.545135,731.105530 243.839600,725.080261 225.951523,717.674316 
	C208.916336,710.621521 192.454498,701.703857 176.813095,691.895752 
	C160.180527,681.466125 144.054825,669.912537 129.110565,657.200623 
	C115.849571,645.920471 104.265434,632.607483 92.390984,619.775574 
	C79.515488,605.861755 68.637497,590.407227 58.604183,574.300842 
	C45.498650,553.262756 34.721909,531.146423 26.027849,507.966919 
	C18.371992,487.555359 13.168180,466.463745 9.210398,445.100037 
	C7.335652,434.980347 6.665728,424.591400 6.090521,414.288696 
	C5.379155,401.547119 4.284791,388.688812 5.246342,376.024475 
	C6.679494,357.148804 9.027123,338.266968 12.347671,319.630432 
	C15.991746,299.178131 22.757965,279.452484 31.305395,260.525452 
	C40.610386,239.920898 51.759109,220.308853 65.307472,202.074860 
	C76.794334,186.615341 89.947670,172.709183 103.985573,159.683456 
	C120.159744,144.675507 138.189713,132.039642 157.435669,121.221222 
	C176.179596,110.684975 195.645676,101.608490 216.437637,96.041351 
	C232.718521,91.682091 249.221436,87.795662 265.862701,85.246552 
	C280.292358,83.036194 295.073151,81.971954 309.666046,82.232292 
	C333.712311,82.661278 357.648407,85.480858 380.611298,93.135918 
	C394.414703,97.737503 408.199341,102.741051 421.306763,108.999870 
	C438.948730,117.423965 455.125549,128.305359 469.971954,141.273987 
	C487.055511,156.196793 501.584778,173.121475 513.707031,192.205521 
	C529.025879,216.322006 539.819336,242.319336 544.871216,270.450073 
	C547.036560,282.507324 548.121704,294.810394 548.912109,307.052490 
	C550.901306,337.862793 545.014587,367.331421 532.795105,395.619415 
	C524.911865,413.869080 514.129944,430.198120 501.274628,445.335846 
	C483.571716,466.181671 462.042572,481.845795 437.344330,493.119781 
	C421.969543,500.137939 405.928619,505.480804 388.917297,506.967010 
	C378.746277,507.855621 368.503662,509.220398 358.356781,508.807831 
	C339.733307,508.050598 321.685242,504.382416 304.517883,496.346802 
	C287.443207,488.354553 272.681458,477.491180 260.209808,463.586884 
	C244.673935,446.266388 234.524536,426.117767 231.074799,402.958374 
	C229.891785,395.016296 229.462265,386.941315 229.089935,378.908447 
	C228.918716,375.214111 229.715042,371.474976 230.168945,366.754425 
	C232.612000,375.438934 234.606934,383.189056 236.980835,390.821320 
	C240.964966,403.630646 248.168472,414.557190 257.001373,424.556885 
	C271.324219,440.771698 289.028564,451.520813 309.968018,456.368347 
	C333.247223,461.757568 356.092987,460.048767 378.127075,450.026367 
	C391.686615,443.858795 403.693115,435.563507 413.749115,424.659668 
	C429.006561,408.115906 438.567261,388.984100 441.169495,366.212799 
	C443.763214,343.516083 438.941711,322.465485 430.007446,301.956879 
	C422.760193,285.320862 412.524445,270.772491 400.129242,257.515900 
	C384.485809,240.785294 366.471161,228.111511 344.588440,220.766388 
	C326.705414,214.763763 308.288788,213.589508 289.983368,215.281403 
	C263.658569,217.714493 239.156448,226.329773 216.591812,240.702072 
	C192.833374,255.834793 174.017197,275.347351 160.058609,299.675812 
	C148.605759,319.636932 141.601273,341.117218 139.076859,363.956116 
	C137.919540,374.426514 136.767792,385.031921 137.181091,395.514282 
	C138.116150,419.229095 142.789078,442.328430 151.200745,464.611694 
	C157.595947,481.553162 165.689575,497.594269 175.999741,512.500427 
	C192.611267,536.516907 213.229065,556.349060 237.904221,571.982178 
	C263.254211,588.042847 290.405487,599.696716 320.033875,604.968506 
	C333.835541,607.424255 347.790863,609.016541 362.159607,611.000244 
z"/>
</svg>